If you care to share, you should love to seed,

please Seed what you leech and make the speed Faster with your speed,

and remember to visit http:// www . Speed . cd



Poster




 
http://img17.imageshack.us/img17/1865/badsanta.png


Bad Santa [Extended].2003.DVDRip.Xvid.AC3.DiVERSiTY



[info]

Complete name                    : Bad Santa [Extended].2003.DVDRip.Xvid.AC3.DiVERSiTY
Format                           : AVI
Format/Info                      : Audio Video Interleave
Format profile                   : OpenDML
File size                        : 743 MB
Duration                         : 1h 39mn
Overall bit rate                 : 1044 Kbps
Writing application              : AVI-Mux GUI 1.17.8.3, Feb 16 201019:42:50 
Source                           : Retail dvd
Encoder                          : Hibees

[url]http://www.imdb.com/title/tt0307987/[/url]



[color=green]Video[/color]

Format                           : MPEG-4 Visual
Format profile                   : Streaming Video@L1
Format settings, BVOP            : Yes
Format settings, QPel            : Yes
Format settings, GMC             : No warppoints
Format settings, Matrix          : Default
Codec ID                         : XVID
Codec ID/Hint                    : XviD
Duration                         : 1h 39mn
Bit rate                         : 782 Kbps
Width                            : 720 pixels
Height                           : 384 pixels
Display aspect ratio             : 1.875
Frame rate                       : 23.976 fps
Resolution                       : 24 bits
Colorimetry                      : 4:2:0
Scan type                        : Progressive
Bits/(Pixel*Frame)               : 0.118
Stream size                      : 557 MiB (75%)
Writing library                  : XviD 1.2.1 (UTC 2008-12-04)


[color=green]Audio[/color]

Format                           : AC-3
Format/Info                      : Audio Coding 3
Codec ID                         : 2000
Duration                         : 1h 39mn
Bit rate mode                    : Constant
Bit rate                         : 256 Kbps
Channel(s)                       : 2 channels
Channel positions                : L R
Sampling rate                    : 48.0 KHz
Stream size                      : 182 MiB (25%)
Alignment                        : Aligned on interleaves
Interleave, duration             : 64 ms (1.53 video frames)
Interleave, preload duration     : 192 ms


[cast]

Billy Bob Thornton               : Willie
Tony Cox                         : Marcus
Brett Kelly                      : The Kid
Lauren Graham                    : Sue
Lauren Tom                       : Lois
Bernie Mac                       : Gin
John Ritter                      : Bob Chipeska 


[plot]
 
A miserable conman and his partner pose as Santa and his Little Helper
to rob department stores on Christmas Eve. But they run into problems 
when the conman befriends a troubled kid, and the security boss 
discovers the plot. 


[note]
[color=red]
Enjoy

Dont forget to thank the uploader [/color][/nfo]


Greets to:

*THC*,PrisM,DiGiTaL iNK,ViSiON,LEGi0N,FLAWL3SS,Rx,Hibees,xXTHORNXx,Noir,IMAGiNE
PDU,ELEKTRI4KA,KART3LDVD,CTFX,202122, StevieL,skrufern

All the people that make p2p what it is...THANKS  



[screens]
 
http://img220.imageshack.us/img220/5041/badsantaavisnapshot0003.jpg 
http://img6.imageshack.us/img6/7514/badsantaavisnapshot0010.jpg 
http://img830.imageshack.us/img830/9490/badsantaavisnapshot0021.jpg 
http://img31.imageshack.us/img31/9490/badsantaavisnapshot0032.jpg 
http://img64.imageshack.us/img64/9371/badsantaavisnapshot0058.jpg 
http://img337.imageshack.us/img337/3080/badsantaavisnapshot0124.jpg
